<svg width="49" height="48" fill="none" xmlns="http://www.w3.org/2000/svg"><g clip-path="url(#clip0)"><path d="M24.501 48.002c13.531 0 24.5-10.746 24.5-24.001S38.034 0 24.502 0 0 10.746 0 24c0 13.256 10.97 24.002 24.501 24.002z" fill="#fff"/><path d="M37.936 13.238c-.064.783-.3 1.613-.48 2.451a20847.61 20847.61 0 01-4.51 20.833c-.086.4-.18.8-.398 1.156-.36.587-.88.803-1.56.651-.43-.096-.802-.293-1.154-.549-2.269-1.65-4.547-3.287-6.81-4.945-.289-.211-.454-.188-.696.049-1.116 1.085-2.254 2.15-3.373 3.232-.426.413-.899.66-1.52.64-.439-.016-.69-.192-.825-.602-.7-2.141-1.411-4.279-2.12-6.417-.24-.725-.493-1.447-.718-2.178-.08-.264-.22-.397-.492-.479-2.22-.668-4.435-1.351-6.653-2.03-.292-.09-.585-.18-.846-.34-.633-.39-.683-.912-.134-1.405.378-.337.835-.538 1.305-.715 3.023-1.145 6.047-2.288 9.07-3.43 6.53-2.466 13.06-4.93 19.588-7.396.052-.02.103-.042.155-.06 1.227-.45 2.162.179 2.17 1.534zM17.45 34.714c.119-.056.108-.133.114-.195.149-1.56.304-3.12.434-4.683.033-.388.155-.677.463-.947 4.256-3.744 8.5-7.5 12.747-11.253.269-.238.539-.473.802-.717.108-.1.25-.216.166-.383-.087-.174-.276-.168-.443-.149-.326.037-.604.194-.877.362-5.236 3.238-10.472 6.476-15.716 9.704-.298.183-.338.35-.232.663.649 1.898 1.278 3.804 1.912 5.708.21.628.42 1.256.63 1.89z" fill="#0079BD"/></g><defs><clipPath id="clip0"><path fill="#fff" d="M0 0h49v48H0z"/></clipPath></defs></svg>