<svg width="88" height="88" fill="none" xmlns="http://www.w3.org/2000/svg"><path d="M10.766 29.086c.482-7.97 7.097-14.285 15.189-14.285 6.525 0 12.091 4.109 14.254 9.88 5.62.067 10.154 4.64 10.154 10.276 0 5.678-4.603 10.28-10.28 10.28H11.047a8.078 8.078 0 01-.282-16.152z" fill="#F0F5F7"/><path d="M50.363 34.958c0 4.108-2.41 7.654-5.894 9.3.628-1.33.98-2.818.98-4.387 0-5.636-4.535-10.21-10.154-10.277-2.163-5.771-7.729-9.879-14.255-9.879-2.942 0-5.69.836-8.018 2.283 2.685-4.32 7.473-7.196 12.933-7.196 6.525 0 12.091 4.108 14.253 9.878 5.62.068 10.155 4.642 10.155 10.278z" fill="#DDE9ED"/><path d="M79.226 48.317c-.544-8.968-7.987-16.074-17.093-16.074-7.343 0-13.605 4.622-16.039 11.115-6.324.077-11.427 5.224-11.427 11.566 0 6.389 5.18 11.568 11.569 11.568h32.672a9.091 9.091 0 00.318-18.175z" fill="#C4E1E8"/><path d="M88 57.4a9.093 9.093 0 01-9.092 9.093h-.705a9.05 9.05 0 001.033-4.21c0-4.915-3.9-8.916-8.774-9.085-.543-8.968-7.988-16.074-17.093-16.074-1.227 0-2.425.129-3.578.374a17.07 17.07 0 0112.343-5.255c9.105 0 16.55 7.105 17.092 16.075A9.088 9.088 0 0188 57.4z" fill="#A4D5DD"/><path d="M73.674 38.71c0 11.257-9.125 20.382-20.383 20.382-11.257 0-20.383-9.125-20.383-20.383 0-11.257 9.126-20.383 20.383-20.383 11.258 0 20.383 9.126 20.383 20.383z" fill="#F6CB43"/><path d="M53.292 59.092c-11.257 0-20.383-9.125-20.383-20.383 0-9.874 7.02-18.109 16.342-19.982a20.386 20.386 0 00-.401 4.042c0 11.257 9.125 20.382 20.383 20.382 1.384 0 2.734-.137 4.04-.4-1.875 9.321-10.11 16.341-19.98 16.341z" fill="#FAB03C"/><path d="M85.173 40.037h-4.39a1.328 1.328 0 010-2.656h4.39a1.328 1.328 0 110 2.656zm-8.071-13.745a1.327 1.327 0 01-.665-2.479l3.802-2.194a1.327 1.327 0 111.328 2.3l-3.803 2.195a1.32 1.32 0 01-.662.178zM67.036 16.23a1.328 1.328 0 01-1.149-1.992l2.195-3.803a1.327 1.327 0 112.3 1.329l-2.195 3.802a1.327 1.327 0 01-1.151.664zm-13.744-3.684a1.328 1.328 0 01-1.328-1.328v-4.39a1.328 1.328 0 112.655 0v4.39c0 .733-.594 1.328-1.327 1.328zM39.548 16.23c-.459 0-.905-.239-1.151-.664l-2.195-3.802a1.328 1.328 0 012.3-1.328l2.194 3.802a1.327 1.327 0 01-1.148 1.992z" fill="#F8E98E"/><path d="M44.559 48.317c-.544-8.968-7.987-16.074-17.093-16.074-7.343 0-13.605 4.622-16.039 11.115C5.103 43.435 0 48.582 0 54.924c0 6.388 5.18 11.568 11.569 11.568H44.24a9.092 9.092 0 009.092-9.092c0-4.914-3.9-8.915-8.774-9.083z" fill="#C4E1E8"/><path d="M53.333 57.4a9.093 9.093 0 01-9.092 9.093h-.705a9.05 9.05 0 001.033-4.21c0-4.915-3.9-8.916-8.774-9.085-.543-8.968-7.988-16.074-17.093-16.074a17.2 17.2 0 00-3.578.374 17.07 17.07 0 0112.343-5.255c9.105 0 16.55 7.105 17.093 16.075a9.088 9.088 0 018.773 9.082z" fill="#A4D5DD"/><path d="M71.94 64.418c-.542-8.969-7.986-16.075-17.09-16.075-7.344 0-13.607 4.623-16.04 11.116-6.324.076-11.427 5.224-11.427 11.565 0 6.39 5.179 11.569 11.569 11.569h32.672c5.02 0 9.091-4.07 9.091-9.092 0-4.915-3.9-8.916-8.774-9.083z" fill="#F0F5F7"/><path d="M80.716 73.5a9.093 9.093 0 01-9.093 9.093h-.704a9.05 9.05 0 001.032-4.21c0-4.914-3.9-8.916-8.774-9.084-.542-8.968-7.987-16.075-17.093-16.075a17.2 17.2 0 00-3.578.375 17.075 17.075 0 0112.343-5.256c9.106 0 16.55 7.105 17.093 16.075 4.874.167 8.774 4.168 8.774 9.083z" fill="#DDE9ED"/><path d="M67.408 63.411c-.6 0-1.143-.41-1.29-1.017-.153-.64-.363-1.27-.625-1.874a1.328 1.328 0 112.438-1.054c.322.743.58 1.52.77 2.306a1.328 1.328 0 01-1.293 1.64zm-3.235-5.906c-.35 0-.698-.137-.958-.408a11.5 11.5 0 00-8.366-3.574 1.328 1.328 0 110-2.655c3.913 0 7.565 1.56 10.282 4.39a1.328 1.328 0 01-.958 2.247zM13.557 69.599c.388-6.412 5.71-11.492 12.22-11.492 5.25 0 9.726 3.305 11.466 7.947a8.27 8.27 0 01-.1 16.539h-23.36a6.5 6.5 0 01-.226-12.994z" fill="#F0F5F7"/><path d="M45.413 74.323a8.271 8.271 0 01-8.157 8.268 8.27 8.27 0 00-5.99-13.861c-1.74-4.641-6.217-7.947-11.468-7.947-.62 0-1.23.047-1.825.136a12.182 12.182 0 017.803-2.811c5.25 0 9.727 3.304 11.467 7.946a8.269 8.269 0 018.17 8.269z" fill="#DDE9ED"/></svg>