<svg width="88" height="88" fill="none" xmlns="http://www.w3.org/2000/svg"><g clip-path="url(#clip0)"><path d="M75.239 22.577C74.476 9.981 64.02 0 51.232 0c-10.314 0-19.11 6.492-22.53 15.613-8.881.107-16.049 7.336-16.049 16.244 0 8.974 7.275 16.25 16.25 16.25h45.89c7.052 0 12.769-5.718 12.769-12.77 0-6.904-5.478-12.524-12.323-12.76z" fill="#6D6D6D"/><path d="M87.563 35.336c0 7.052-5.718 12.77-12.77 12.77h-.99a12.712 12.712 0 001.45-5.913c0-6.902-5.478-12.523-12.324-12.76C62.166 16.837 51.71 6.855 38.921 6.855c-1.724 0-3.405.182-5.026.527A23.978 23.978 0 0151.231 0c12.79 0 23.246 9.98 24.009 22.58 6.846.233 12.323 5.854 12.323 12.757z" fill="#565656"/><path d="M68.873 21.124c-.6 0-1.145-.41-1.29-1.018a16.641 16.641 0 00-.908-2.719 1.328 1.328 0 112.437-1.054c.44 1.016.794 2.076 1.052 3.152a1.327 1.327 0 01-1.291 1.639zm-4.545-8.294c-.35 0-.697-.137-.958-.41-3.209-3.342-7.52-5.183-12.138-5.183a1.328 1.328 0 010-2.656c5.349 0 10.34 2.131 14.054 6a1.328 1.328 0 01-.958 2.249z" fill="#6D6D6D"/><path d="M9.154 29.855c.546-9.005 8.02-16.14 17.163-16.14 7.374 0 13.662 4.64 16.106 11.161 6.35.077 11.475 5.246 11.475 11.613 0 6.416-5.202 11.617-11.617 11.617H9.473a9.13 9.13 0 01-.319-18.25z" fill="#A09D9C"/><path d="M53.897 36.49c0 6.36-5.114 11.527-11.456 11.613a11.57 11.57 0 003.06-7.856c0-6.367-5.123-11.535-11.474-11.613-2.444-6.519-8.732-11.162-16.107-11.162-.871 0-1.726.066-2.564.19a17.108 17.108 0 0110.96-3.947c7.375 0 13.663 4.64 16.107 11.162 6.351.077 11.474 5.243 11.474 11.613z" fill="#82807F"/><path d="M18.937 60.269a3.627 3.627 0 11-7.255 0c0-1.315 1.562-3.896 2.636-5.515a1.19 1.19 0 011.982 0c1.074 1.62 2.637 4.2 2.637 5.515z" fill="#A0ECFF"/><path d="M18.936 60.269a3.627 3.627 0 01-5.042 3.34 3.627 3.627 0 002.212-3.34c0-1.15-1.194-3.267-2.211-4.863.145-.229.287-.446.421-.65a1.19 1.19 0 011.984-.002c1.075 1.62 2.636 4.2 2.636 5.515z" fill="#60DAFF"/><path d="M35.305 60.269a3.628 3.628 0 01-7.255 0c0-1.315 1.562-3.896 2.636-5.515a1.19 1.19 0 011.982 0c1.075 1.62 2.637 4.2 2.637 5.515z" fill="#A0ECFF"/><path d="M35.304 60.269a3.627 3.627 0 01-5.042 3.34 3.627 3.627 0 002.212-3.34c0-1.15-1.194-3.267-2.21-4.863.145-.229.286-.446.42-.65a1.19 1.19 0 011.985-.002c1.074 1.62 2.636 4.2 2.636 5.515z" fill="#60DAFF"/><path d="M51.673 60.269a3.628 3.628 0 01-7.255 0c0-1.315 1.562-3.896 2.636-5.515a1.19 1.19 0 011.982 0c1.075 1.62 2.637 4.2 2.637 5.515z" fill="#A0ECFF"/><path d="M51.672 60.269a3.628 3.628 0 01-5.043 3.34 3.627 3.627 0 002.212-3.34c0-1.15-1.194-3.267-2.21-4.863.145-.229.287-.446.422-.65a1.19 1.19 0 011.983-.002c1.074 1.62 2.636 4.2 2.636 5.515z" fill="#60DAFF"/><path d="M68.04 60.269a3.628 3.628 0 01-7.255 0c0-1.315 1.563-3.896 2.637-5.515a1.19 1.19 0 011.982 0c1.075 1.62 2.636 4.2 2.636 5.515z" fill="#A0ECFF"/><path d="M68.04 60.269a3.628 3.628 0 01-5.043 3.34 3.626 3.626 0 002.212-3.34c0-1.15-1.193-3.267-2.21-4.863.145-.229.287-.446.422-.65a1.19 1.19 0 011.984-.002c1.073 1.62 2.635 4.2 2.635 5.515z" fill="#60DAFF"/><path d="M18.937 84.372a3.627 3.627 0 11-7.255 0c0-1.314 1.562-3.894 2.636-5.513a1.19 1.19 0 011.982 0c1.074 1.619 2.637 4.199 2.637 5.513z" fill="#A0ECFF"/><path d="M18.936 84.373a3.626 3.626 0 01-5.042 3.34 3.628 3.628 0 002.212-3.34c0-1.15-1.194-3.267-2.211-4.863.145-.228.287-.446.421-.649a1.19 1.19 0 011.984-.003c1.075 1.62 2.636 4.2 2.636 5.515z" fill="#60DAFF"/><path d="M35.305 84.372a3.628 3.628 0 01-7.255 0c0-1.314 1.562-3.894 2.636-5.513a1.19 1.19 0 011.982 0c1.075 1.619 2.637 4.199 2.637 5.513z" fill="#A0ECFF"/><path d="M35.304 84.373a3.626 3.626 0 01-5.042 3.34 3.628 3.628 0 002.212-3.34c0-1.15-1.194-3.267-2.21-4.863.145-.228.286-.446.42-.649a1.19 1.19 0 011.985-.003c1.074 1.62 2.636 4.2 2.636 5.515z" fill="#60DAFF"/><path d="M51.673 84.372a3.628 3.628 0 01-7.255 0c0-1.314 1.562-3.894 2.636-5.513a1.188 1.188 0 011.982 0c1.075 1.619 2.637 4.199 2.637 5.513z" fill="#A0ECFF"/><path d="M51.672 84.373a3.627 3.627 0 01-5.043 3.34 3.628 3.628 0 002.212-3.34c0-1.15-1.194-3.267-2.21-4.863.145-.228.287-.446.422-.649a1.19 1.19 0 011.983-.003c1.074 1.62 2.636 4.2 2.636 5.515z" fill="#60DAFF"/><path d="M68.04 84.372a3.628 3.628 0 01-7.255 0c0-1.314 1.563-3.894 2.637-5.513.47-.71 1.512-.71 1.982 0 1.075 1.619 2.636 4.199 2.636 5.513z" fill="#A0ECFF"/><path d="M68.04 84.373a3.627 3.627 0 01-5.043 3.34 3.627 3.627 0 002.212-3.34c0-1.15-1.193-3.267-2.21-4.863.145-.228.287-.446.422-.649a1.19 1.19 0 011.984-.003c1.073 1.62 2.635 4.2 2.635 5.515z" fill="#60DAFF"/><path d="M27.121 72.18a3.628 3.628 0 01-7.255 0c0-1.314 1.563-3.895 2.636-5.514a1.19 1.19 0 011.983 0c1.074 1.62 2.636 4.2 2.636 5.515z" fill="#A0ECFF"/><path d="M27.12 72.18a3.627 3.627 0 01-5.043 3.34 3.626 3.626 0 002.212-3.34c0-1.149-1.193-3.266-2.21-4.862.145-.228.287-.446.422-.65a1.19 1.19 0 011.984-.002c1.073 1.62 2.636 4.2 2.636 5.515z" fill="#60DAFF"/><path d="M43.49 72.18a3.628 3.628 0 01-7.256 0c0-1.314 1.563-3.895 2.636-5.514a1.19 1.19 0 011.983 0c1.074 1.62 2.636 4.2 2.636 5.515z" fill="#A0ECFF"/><path d="M43.489 72.18a3.627 3.627 0 01-5.044 3.34 3.626 3.626 0 002.212-3.34c0-1.149-1.192-3.266-2.21-4.862.145-.228.288-.446.422-.65a1.19 1.19 0 011.984-.002c1.073 1.62 2.636 4.2 2.636 5.515z" fill="#60DAFF"/><path d="M59.857 72.18a3.628 3.628 0 01-7.255 0c0-1.314 1.562-3.895 2.635-5.514a1.19 1.19 0 011.983 0c1.074 1.62 2.637 4.2 2.637 5.515z" fill="#A0ECFF"/><path d="M59.856 72.18a3.627 3.627 0 01-5.044 3.34 3.626 3.626 0 002.213-3.34c0-1.149-1.193-3.266-2.211-4.862.145-.228.288-.446.422-.65a1.19 1.19 0 011.984-.002c1.074 1.62 2.636 4.2 2.636 5.515z" fill="#60DAFF"/><path d="M76.225 72.18a3.628 3.628 0 01-7.255 0c0-1.314 1.562-3.895 2.636-5.514a1.19 1.19 0 011.982 0c1.074 1.62 2.637 4.2 2.637 5.515z" fill="#A0ECFF"/><path d="M76.223 72.18a3.627 3.627 0 01-5.042 3.34 3.627 3.627 0 002.212-3.34c0-1.149-1.194-3.266-2.212-4.862.146-.228.288-.446.423-.65a1.19 1.19 0 011.984-.002c1.074 1.62 2.635 4.2 2.635 5.515z" fill="#60DAFF"/></g><defs><clipPath id="clip0"><path fill="#fff" d="M0 0h88v88H0z"/></clipPath></defs></svg>