<svg width="88" height="88" fill="none" xmlns="http://www.w3.org/2000/svg"><g clip-path="url(#clip0)"><path d="M44 68.891c13.746 0 24.89-11.144 24.89-24.891 0-13.747-11.144-24.891-24.892-24.891-13.747 0-24.891 11.144-24.891 24.891 0 13.748 11.144 24.892 24.891 24.892zM44 9.77a1.33 1.33 0 01-1.33-1.329V1.33a1.33 1.33 0 112.66 0v7.11A1.33 1.33 0 0144 9.771zm-17.778 4.765c-.46 0-.907-.238-1.153-.665l-3.556-6.158a1.33 1.33 0 012.304-1.33l3.555 6.158a1.33 1.33 0 01-1.15 1.995zM13.204 27.55c-.226 0-.455-.057-.664-.178l-6.159-3.555a1.33 1.33 0 011.33-2.304l6.159 3.556a1.33 1.33 0 01-.666 2.482zM8.441 45.33H1.33a1.33 1.33 0 110-2.66h7.11a1.33 1.33 0 110 2.66zM7.048 66.665a1.329 1.329 0 01-.666-2.482l6.159-3.555a1.33 1.33 0 011.33 2.303l-6.16 3.556a1.33 1.33 0 01-.663.178zm15.616 15.619a1.33 1.33 0 01-1.15-1.995l3.555-6.16a1.33 1.33 0 012.303 1.33l-3.555 6.16a1.33 1.33 0 01-1.153.665zM44 88a1.33 1.33 0 01-1.33-1.33v-7.11a1.33 1.33 0 112.66 0v7.111A1.33 1.33 0 0144 88zm21.336-5.717c-.46 0-.906-.238-1.152-.665l-3.556-6.158a1.33 1.33 0 112.303-1.33l3.556 6.159a1.33 1.33 0 01-1.15 1.994zm15.616-15.618a1.32 1.32 0 01-.663-.178l-6.16-3.556a1.33 1.33 0 011.33-2.303l6.16 3.556a1.33 1.33 0 01-.667 2.481zM86.67 45.33h-7.112a1.33 1.33 0 110-2.66h7.112a1.33 1.33 0 110 2.66zM74.796 27.55a1.329 1.329 0 01-.666-2.48l6.159-3.556a1.33 1.33 0 011.33 2.303l-6.16 3.556a1.33 1.33 0 01-.663.178zM61.778 14.535a1.33 1.33 0 01-1.15-1.995l3.556-6.159a1.33 1.33 0 012.303 1.33L62.93 13.87a1.33 1.33 0 01-1.153.665z" fill="#FFD347"/><path d="M44 19.109c-.9 0-1.79.049-2.666.142C53.826 20.582 63.556 31.154 63.556 44c0 12.845-9.73 23.417-22.224 24.748.877.094 1.766.143 2.667.143C57.746 68.891 68.89 57.747 68.89 44c0-13.747-11.144-24.891-24.89-24.891z" fill="#FFBE31"/></g><defs><clipPath id="clip0"><path fill="#fff" d="M0 0h88v88H0z"/></clipPath></defs></svg>