<svg width="48" height="48" fill="none" xmlns="http://www.w3.org/2000/svg"><g clip-path="url(#clip0)"><path d="M24 48.002c13.256 0 24.002-10.746 24.002-24.001S37.256 0 24 0 0 10.746 0 24c0 13.256 10.746 24.002 24 24.002z" fill="#fff"/><path d="M24.028 7.984c2.15.039 4.299.06 6.448.12 1.864.052 3.672.385 5.293 1.373 2.124 1.296 3.424 3.209 3.844 5.637.25 1.454.336 2.948.36 4.425.047 3.176.03 6.356-.006 9.533-.018 1.669-.073 3.343-.627 4.947-1.073 3.11-3.255 5-6.456 5.608-1.445.275-2.946.338-4.423.36-3.166.049-6.333.029-9.5-.005-1.667-.018-3.341-.073-4.947-.622-3.114-1.065-5.005-3.248-5.622-6.444-.279-1.445-.34-2.945-.362-4.423-.05-3.177-.03-6.357.005-9.534.018-1.667.073-3.342.627-4.946 1.073-3.11 3.255-4.999 6.456-5.607 1.446-.275 2.945-.307 4.424-.364 1.493-.058 2.99-.013 4.485-.013l.001-.045zm13.14 15.776l-.065-.001c0-1.263.027-2.525-.006-3.787-.032-1.213-.079-2.43-.202-3.635-.274-2.705-1.884-4.57-4.547-5.076-1.4-.266-2.853-.307-4.285-.333-2.71-.05-5.423-.043-8.133-.002-1.35.02-2.715.072-4.048.28-2.313.36-3.894 1.683-4.533 3.978a9.38 9.38 0 00-.343 2.277 321.14 321.14 0 00-.103 8.69c.008 1.844.05 3.693.21 5.528.24 2.75 1.915 4.626 4.624 5.119 1.392.252 2.834.283 4.254.308 2.676.045 5.352.033 8.028.003a41.795 41.795 0 003.67-.202c1.14-.112 2.207-.485 3.124-1.212 1.486-1.181 2.06-2.81 2.149-4.615.118-2.438.142-4.88.206-7.32z" fill="#0079BD"/><path d="M32.216 24.027a8.184 8.184 0 01-8.223 8.207c-4.585 0-8.209-3.662-8.207-8.294.002-4.514 3.697-8.139 8.294-8.136 4.49.003 8.136 3.687 8.136 8.223zm-8.219 5.323c2.923.002 5.332-2.403 5.335-5.328.001-2.922-2.407-5.334-5.327-5.333-2.927.001-5.331 2.401-5.334 5.326-.003 2.922 2.403 5.33 5.326 5.335zm10.464-13.882c.002 1.076-.861 1.95-1.92 1.943-1.064-.007-1.942-.891-1.933-1.945a1.923 1.923 0 011.92-1.908c1.092-.006 1.931.824 1.933 1.91z" fill="#0079BD"/></g><defs><clipPath id="clip0"><path fill="#fff" d="M0 0h48v48H0z"/></clipPath></defs></svg>