<svg width="209" height="34" fill="none" xmlns="http://www.w3.org/2000/svg"><path fill-rule="evenodd" clip-rule="evenodd" d="M115.424 33.677h-13.566L107.025 0h6.632l-4.29 27.963h6.933l-.876 5.714zM86.576 0L72.115 33.677h-5.426L62.159 0h7.133l1.693 22.777L79.642 0h6.934zM59.705 33.677h-7.034l-.389-5.655H45.6l-2.074 5.655h-6.632L49.304 0h8.121l2.28 33.677zM47.402 22.822h4.673L51.78 8.684 47.4 22.822h.001zm46.318-9.131h4.691l-.797 5.2h-4.691l-1.408 9.173h7.377l-.862 5.613H84.023L89.189 0h13.313l-.868 5.665h-6.682L93.72 13.69zM28.917 33.687l-3.362-12.436h-1.142l-1.906 12.426h-6.632L21.042 0h8.371c3.25 0 5.592.543 7.037 1.615 1.14.846 1.946 2.004 2.405 3.484.427 1.38.55 2.834.356 4.36-.372 2.924-.784 5.488-2.98 7.988a9.991 9.991 0 01-2.545 2.188 9.347 9.347 0 01-1.331.656l3.547 13.388-6.984.008zM25.22 16h2.443c2.628 0 4.217-1.405 4.758-4.211.125-.732.277-1.626.357-2.327.321-2.806-.84-4.211-3.467-4.211h-2.442L25.219 16zM16.981 5.563h-5.174L7.495 33.677H.862L5.175 5.563H0L.853 0h16.982l-.854 5.563zm191.498 28.114h-10.35L203.296 0h3.114l-4.725 30.8h7.235l-.441 2.877zm-13.243 0h-11.043L189.359 0h10.45l-.441 2.878h-7.336l-1.831 11.944h5.947l-.442 2.878h-5.947l-2.01 13.1h7.929l-.442 2.877zM187.139 0L175.19 33.677h-2.764L170.861 0h3.215l.867 26.775L183.923 0h3.216zm-22.811 33.677h-11.043L158.451 0h10.45l-.442 2.878h-7.335l-1.831 11.935h5.948l-.442 2.878h-5.947l-2.012 13.108h7.929l-.441 2.878zm-13.776 0h-2.974l-5.492-14.67h-.638l-2.251 14.67h-3.417L140.946 0h4.221c2.679 0 4.551.33 5.631.96 2.588 1.506 2.829 4.682 2.437 7.651-.03.218-.337 2.246-.373 2.46-.85 5.16-3.863 7.749-7.425 7.962l5.115 14.645zm-8.725-17.145h2.06c1.876 0 3.202-.491 3.968-1.464.725-.92 1.253-2.3 1.559-4.125.038-.223.348-2.249.378-2.47.266-1.931.131-3.337-.381-4.207-.543-.924-1.825-1.389-3.831-1.389h-1.658l-2.095 13.655zM124.298 0h4.873c2.244 0 3.829.386 4.746 1.16 1.512 1.278 1.987 3.755 1.424 7.424-.323 2.108-1.593 6.589-4.728 7.826 3.6 1.023 3.582 4.88 3.06 8.28-.552 3.602-1.86 6.128-3.924 7.574-1.348.943-3.183 1.413-5.492 1.413h-5.125L124.298 0zm.842 14.816h1.658c1.843 0 3.109-.444 3.821-1.486.711-1.043 1.224-2.575 1.533-4.594.269-1.752.716-4.645-.956-5.555-1.105-.601-2.864-.454-4.201-.454l-1.855 12.09zm-2.483 16.186h1.658c4.239 0 5.575-2.603 6.159-6.413.707-4.61-.615-6.916-3.964-6.916h-1.808l-2.045 13.33z" fill="#fff"/></svg>