<svg width="48" height="48" fill="none" xmlns="http://www.w3.org/2000/svg"><g clip-path="url(#clip0)"><path d="M24 48.002c13.256 0 24.002-10.746 24.002-24.001S37.256 0 24 0 0 10.746 0 24c0 13.256 10.746 24.002 24 24.002z" fill="#fff"/><path fill-rule="evenodd" clip-rule="evenodd" d="M39.248 15.798c.236-.745 0-1.288-1.05-1.288h-3.492c-.88 0-1.288.475-1.524.983 0 0-1.797 4.34-4.305 7.152-.813.813-1.186 1.084-1.626 1.084-.236 0-.544-.27-.544-1.018v-6.947c0-.882-.27-1.288-1.016-1.288H20.2c-.543 0-.88.406-.88.813 0 .847 1.253 1.05 1.39 3.424v5.151c0 1.118-.205 1.322-.643 1.322-1.186 0-4.067-4.373-5.796-9.354-.339-.984-.677-1.356-1.559-1.356H9.186c-1.018 0-1.186.474-1.186.983 0 .916 1.186 5.525 5.525 11.625 2.881 4.168 6.981 6.405 10.675 6.405 2.237 0 2.508-.508 2.508-1.355v-3.152c0-1.017.205-1.186.915-1.186.51 0 1.424.27 3.492 2.272 2.371 2.372 2.779 3.457 4.1 3.457l3.492-.003c1.018 0 1.49-.509 1.22-1.49-.304-.984-1.458-2.406-2.95-4.101-.812-.95-2.033-1.999-2.405-2.508-.508-.677-.372-.95 0-1.558-.034 0 4.235-6.034 4.675-8.067z" fill="#0079BD"/></g><defs><clipPath id="clip0"><path fill="#fff" d="M0 0h48v48H0z"/></clipPath></defs></svg>