<svg width="284" height="70" fill="none" xmlns="http://www.w3.org/2000/svg"><g clip-path="url(#clip0)" fill-rule="evenodd" clip-rule="evenodd"><path d="M9.822 43.087H8.423c-2.826 0-5.603 2.326-6.169 5.165-.21 1.058-.563 3.171-.774 4.23C.684 56.031 3.388 57.4 7 57.432l3.996.014c-1.284-.004-3.86-.885-3.249-3.954l2.075-10.404-.001-.001z" fill="#B86823"/><path d="M28.236 27.102H17.413c-2.827 0-5.603 2.326-6.169 5.165l-3.992 20.03c-.566 2.84 1.284 5.165 4.11 5.165h10.823l6.05-30.36z" fill="#ED811F"/><path d="M28.236 27.102h-4.78l-6.052 30.36h4.78l6.052-30.36z" fill="#B86823"/><path d="M17.549 56.737l.803-4.03.477-2.398c.171-.856-.388-1.556-1.238-1.556h-2.767c-.85 0-1.688.703-1.858 1.556l-1.281 6.428h5.864z" fill="#B86823"/><path d="M10.267 43.29L8.124 52.5a3.88 3.88 0 00-.103.884c0 .765.244 1.448.67 1.98a3.185 3.185 0 001.78 1.096c.277.065.575.1.89.1v1.803c-.449 0-.883-.052-1.297-.149a4.97 4.97 0 01-2.767-1.724 4.925 4.925 0 01-1.07-3.106c0-.416.049-.848.152-1.292l2.144-9.21 1.744.409zM24.33 27.886l-3.445 16.692-1.752-.366 3.446-16.693 1.752.367z" fill="#00497C"/><path d="M17.473 52.53l.364-1.833c.073-.369.118-.569.125-.614h-.003a.69.69 0 00.004-.078.365.365 0 00-.075-.242.344.344 0 00-.221-.104.61.61 0 00-.076-.004h-2.768a.982.982 0 00-.612.247 1.05 1.05 0 00-.366.584l-1.21 5.907h4.769v1.803H11.54a.9.9 0 01-.879-1.078l1.425-6.985c.126-.632.493-1.202.982-1.612.493-.413 1.118-.669 1.755-.669h2.768c.098 0 .197.006.293.018a2.117 2.117 0 011.873 2.135c0 .096-.006.195-.019.296h-.003v.004a27.55 27.55 0 01-.14.736l-.364 1.841-1.759-.352z" fill="#00497C"/><path d="M28.236 28.454H17.413c-1.086 0-2.168.457-3.045 1.192-.898.75-1.57 1.78-1.81 2.9l-2.43 11.372-2.628-.56 2.43-11.371c.368-1.722 1.38-3.286 2.724-4.411 1.344-1.126 3.032-1.826 4.76-1.826h10.822v2.705zM11.362 56.11h10.823v2.704H11.362V56.11z" fill="#00497C"/><path d="M8.423 44.438c-1.094 0-2.19.46-3.075 1.201-.89.745-1.553 1.763-1.775 2.876-.109.548-.245 1.316-.382 2.084-.145.818-.29 1.636-.392 2.146l-.01.032a3.982 3.982 0 00-.109.85c-.005.607.185 1.067.519 1.4.397.395 1.014.67 1.777.843a9.69 9.69 0 002.035.213l4.421.03-.01 2.694-4.433-.03a12.33 12.33 0 01-2.603-.277c-1.24-.28-2.302-.787-3.08-1.562-.84-.837-1.32-1.935-1.307-3.332.004-.44.057-.903.164-1.389H.159c.11-.55.246-1.317.382-2.085.146-.818.291-1.636.393-2.147.344-1.726 1.353-3.29 2.7-4.418 1.35-1.131 3.056-1.834 4.788-1.834v2.704l.001.002z" fill="#00497C"/><path d="M43.073 60.113c1.138.924 5.914 3.616 7.637 3.616h.456c1.345 0 2.226 1.107 1.957 2.46-.27 1.352-1.591 2.458-2.938 2.458H37.42c3.069 0-.41-3.272 1.379-5.879.424-.616 4.005-1.962 4.275-2.655h-.001z" fill="#ED811F"/><path d="M43.948 59.124c.484.972 4.237 2.755 4.83 2.954.578.195 1.225.3 1.932.3h.456c.246 0 .485.024.715.07a3.243 3.243 0 011.91 1.153c.459.572.72 1.301.72 2.108h.006c0 .242-.025.491-.075.745-.196.983-.767 1.87-1.527 2.507-.766.642-1.738 1.04-2.73 1.04h-12.9v-2.705h12.902c.354 0 .717-.156 1.015-.406.304-.254.53-.596.603-.965a1.08 1.08 0 00.022-.217h.006a.658.658 0 00-.133-.417.578.578 0 00-.344-.191.965.965 0 00-.189-.018h-.456c-.986 0-1.92-.157-2.784-.447-.902-.304-5.339-2.09-5.729-3.531l1.751-1.98z" fill="#00497C"/><path d="M38.665 14.08c-.804.262-5.01-4.666-8.043-2.525 2.034 2.941 4.81 3.234 2.026 6.155-2.07 2.172-3.536 4.992-4.157 8.107L21.92 58.793c-.676 3.392-3.324 7.71-6.7 7.71l-.36.64c-.499.882-2.216-.043-2.418.972-.203 1.015.027.533 1.037.533H37.42c4.288 0 8.5-3.527 9.359-7.837l6.975-34.994c1.255-6.296-2.319-11.56-8.127-12.533-.601-.1-3.753-4.713-6.55-3.62-.297.117 1.97 3.637-.412 4.415z" fill="#00A0E1"/><path d="M36.586 12.845c-1.697-1.194-4.061-2.634-5.964-1.29 2.034 2.94 4.81 3.234 2.026 6.155-2.07 2.172-3.536 4.992-4.157 8.106L21.92 58.793c-.676 3.391-3.103 8.35-6.477 8.35H15.1c-1.01 0-1.974.201-2.176 1.216-.202 1.014-.456.289.554.289 8.78 0 13.331-3.862 14.248-8.46l6.572-32.977c.62-3.115 2.845-8.134 4.916-10.306 2.784-2.92.404-3.623-2.785-3.956.052-.036.105-.071.158-.104z" fill="#0079BD"/><path d="M32.776 26.479c2.597.406 5.378 1.304 7.585 3.332.588.54 1.037.598.36 1.298-.15.155-8.318 8.692-10.201 8.723l2.255-13.354z" fill="#0079BD"/><path d="M45.225 61.45a7.706 7.706 0 00.237-.902l6.975-34.995c.035-.178.06-.307.073-.388.437-2.635-.078-5.032-1.297-6.88-1.206-1.828-3.116-3.134-5.488-3.61a13.629 13.629 0 00-.318-.062c-.449-.075-.899-.405-1.522-.86-.977-.717-2.626-1.924-3.913-2.098.51 1.356.927 2.957-.803 3.669-.85.349-1.662-.12-2.748-.745-.922-.532-2.18-1.257-3.333-1.439 1.262 1.033 2.418 2.381 1.285 4.48l.005.002c-.31.574-1.092.779-1.992.905.346.483.415 1.049-.135 1.788-.234.315-.288.406-.421.628-.063.106.09-.152-.124.203a15.194 15.194 0 00-1.158 2.373c-.312.808-.56 1.665-.738 2.561l-.21 1.055-2.635-.527.21-1.055a18.235 18.235 0 012.244-5.8c.119-.197-.01.015.1-.172a6.421 6.421 0 01-.693-.553c-.755-.727-1.008-1.495-.187-2.357.458-.48 1.586-.606 2.684-.73.488-.055.421.898.693.395h.005c.245-.454-.606-1.1-1.262-1.599-1.25-.948-2.258-1.714-1.28-3.145l.14-.204.195-.138c2.55-1.8 5.382-.458 7.382.669-.394-1.02-.623-1.85.443-2.455 2.775-1.579 6.074.837 7.82 2.116.32.235.227.35.388.376.183.03.319.055.403.072 3.093.623 5.6 2.348 7.199 4.77 1.584 2.402 2.26 5.473 1.706 8.811a15.19 15.19 0 01-.084.472l-6.974 34.995a9.815 9.815 0 01-.333 1.23l-2.54-.854v-.002zM38.16 12.834c.262-.107.082-.179-.183-.272.03.2-.053.37.183.272z" fill="#00497C"/><path d="M37.42 67.748c1.756 0 3.505-.662 4.967-1.753 1.492-1.113 2.677-2.663 3.262-4.402l1.693.57c-.704 2.095-2.118 3.95-3.891 5.274-1.76 1.313-3.883 2.112-6.03 2.112v-1.8l-.001-.001z" fill="#00497C"/><path d="M23.349 57.551l-.099 1.437-.013.069c-.827 4.147-3.106 6.674-5.446 8.24h25.704l-2.69 2.701H7.958c3.988-2.878 11.001-3.458 12.631-11.405l.084-1.22 2.676.178z" fill="#00497C"/><path d="M46.358 62.256c3.673-6.66 7.357-20.26 6.568-32.285-6.117 3.302-10.968 9.314-12.337 16.184-1.358 6.813 1.045 12.783 5.769 16.102z" fill="#fff"/><path d="M27.94 26.222c.36.015 1.08.002 1.513.008 3.24.047 8.756.127 12.526 3.59l-1.206 1.324c-3.267-3.002-8.354-3.075-11.342-3.117-.471-.007-1.227.005-1.562-.009l.07-1.796zm25.41 4.54a24.572 24.572 0 00-5.042 3.634l-1.218-1.314a26.455 26.455 0 012.591-2.134 25.673 25.673 0 012.822-1.768l.846 1.582z" fill="#00497C"/><path d="M45.188 61.602c1.925-3.491 3.859-8.977 5.115-15.152 1.07-5.255 1.64-10.99 1.285-16.395l2.677-.17c.37 5.646-.224 11.628-1.338 17.103-1.31 6.444-3.354 12.213-5.399 15.922l-2.34-1.308z" fill="#00497C"/><path d="M41.706 54.221a13.741 13.741 0 001.975 4.123 13.174 13.174 0 003.188 3.177l-1.022 1.47a14.97 14.97 0 01-3.621-3.607 15.559 15.559 0 01-2.234-4.664l1.715-.5-.001.001zM26.453 40.623l-3.336 18.08-1.759-.324 3.336-18.08 1.759.324zm2.665-13.359l-1.175 5.895-1.76-.352 1.176-5.895 1.76.352zM190.503 59.96h-13.565l5.166-33.677h6.632l-4.289 27.963h6.933l-.877 5.715zm-28.848-33.677l-14.461 33.678h-5.426l-4.53-33.678h7.134l1.693 22.777 8.657-22.777h6.933zM134.784 59.96h-7.034l-.388-5.655h-6.683l-2.073 5.656h-6.632l12.41-33.678h8.121l2.279 33.678zm-12.302-10.855h4.672l-.293-14.138-4.38 14.138h.001zm46.318-9.131h4.691l-.797 5.2h-4.692l-1.407 9.173h7.376l-.862 5.614h-14.007l5.166-33.678h13.314l-.869 5.665h-6.682l-1.231 8.026zM103.997 59.97l-3.363-12.436h-1.141L97.587 59.96h-6.632l5.166-33.678h8.372c3.249 0 5.591.543 7.037 1.615 1.139.846 1.945 2.004 2.404 3.484.428 1.38.551 2.835.357 4.361-.372 2.923-.784 5.487-2.98 7.987a9.99 9.99 0 01-2.546 2.188 9.266 9.266 0 01-1.331.657l3.548 13.387-6.985.008zm-3.698-17.687h2.442c2.629 0 4.217-1.405 4.758-4.21.126-.733.277-1.627.357-2.328.322-2.806-.839-4.211-3.466-4.211h-2.443l-1.648 10.749zm-8.238-10.437h-5.175l-4.312 28.115h-6.632l4.313-28.115H75.08l.853-5.563h16.982l-.854 5.563z" fill="#00497C"/><path d="M283.559 59.96h-10.35l5.166-33.677h3.115l-4.725 30.8H284l-.441 2.878zm-13.243 0h-11.044l5.166-33.677h10.451l-.442 2.878h-7.335l-1.832 11.944h5.947l-.441 2.878h-5.948l-2.009 13.1h7.928l-.441 2.878zm-8.097-33.677L250.27 59.961h-2.764l-1.566-33.678h3.216l.866 26.775 8.981-26.775h3.216zM239.408 59.96h-11.044l5.166-33.677h10.45l-.441 2.878h-7.335l-1.831 11.935h5.947l-.441 2.878h-5.948l-2.011 13.109h7.929l-.441 2.878zm-13.777 0h-2.973l-5.493-14.67h-.638l-2.251 14.67h-3.416l5.166-33.677h4.22c2.68 0 4.551.33 5.631.96 2.589 1.506 2.83 4.682 2.438 7.651-.03.219-.338 2.246-.373 2.46-.85 5.161-3.863 7.749-7.426 7.963l5.115 14.644zm-8.724-17.144h2.06c1.875 0 3.202-.492 3.968-1.465.724-.92 1.253-2.3 1.559-4.125.037-.223.348-2.248.378-2.47.265-1.931.131-3.336-.381-4.207-.544-.924-1.825-1.388-3.832-1.388h-1.657l-2.095 13.654zm-17.53-16.533h4.874c2.244 0 3.828.386 4.745 1.161 1.512 1.277 1.987 3.754 1.424 7.423-.323 2.108-1.593 6.589-4.727 7.826 3.599 1.024 3.582 4.88 3.06 8.28-.553 3.602-1.86 6.129-3.925 7.574-1.348.943-3.183 1.414-5.492 1.414h-5.125l5.166-33.678zm.843 14.817h1.658c1.843 0 3.109-.445 3.82-1.487.711-1.043 1.224-2.575 1.534-4.594.268-1.752.716-4.645-.956-5.554-1.105-.602-2.865-.455-4.202-.455L200.22 41.1zm-2.483 16.185h1.658c4.238 0 5.575-2.603 6.158-6.412.708-4.612-.615-6.917-3.963-6.917h-1.809l-2.045 13.33h.001z" fill="#0079BD"/><path d="M28.505 54.441l1.049-8.291 2.609-8.204c2.065-2.837 5.81-3.848 8.365-2.255 2.553 1.593 2.95 5.184.884 8.022-4.828 6.963-8.126 9.693-12.907 10.728z" fill="#00A0E1"/><path d="M28.282 55.02l2.609-8.203 1.272-8.87c1.871-2.57 5.122-3.64 7.616-2.636a7.427 7.427 0 00-3.509 2.636l-2.609 8.204-2.108 6.628c-1.542.748-1.742 1.91-3.271 2.242z" fill="#0079BD"/><path d="M27.563 54.584l3.51-16.869.095-.143c1.095-1.63 2.686-2.77 4.37-3.294 1.726-.536 3.557-.43 5.087.445.137.079.259.154.364.226 1.32.895 2.126 2.266 2.373 3.812.24 1.497-.051 3.158-.918 4.688-.11.194-.22.375-.332.541-2.325 3.636-4.425 6.21-6.561 8.042-2.186 1.875-4.394 2.967-6.893 3.608l-1.389.357.294-1.412v-.001zm5.183-16.144L29.62 53.467c1.681-.598 3.232-1.483 4.77-2.801 2.001-1.717 3.995-4.17 6.227-7.665l.011-.018c.101-.151.19-.292.263-.422.66-1.166.886-2.411.708-3.52-.17-1.06-.717-1.996-1.61-2.602a3.785 3.785 0 00-.245-.155c-1.084-.62-2.41-.684-3.68-.29-1.262.392-2.46 1.236-3.318 2.447zm12.756-20.716c1.288 0 2.331.832 2.331 1.857 0 1.026-1.043 1.858-2.33 1.858-1.289 0-2.332-.832-2.332-1.858 0-1.025 1.043-1.857 2.331-1.857z" fill="#00497C"/><path d="M30.547 3.704l5.038-2.681c2.78-1.48 6.261.358 7.387 3.31l2.046 5.368-15.965 6.147-1.8-4.721c-1.126-2.953.514-5.945 3.294-7.424z" fill="#FFEB00"/><path d="M30.56 3.658L35.597.977C36.775.35 38.08.319 39.277.716l-3.679 1.957c-2.78 1.48-4.42 4.472-3.295 7.424l1.483 3.888-4.72 1.818-1.8-4.722c-1.126-2.952.514-5.944 3.294-7.423z" fill="#EABD00"/><path d="M27.81 16.355l-1.801-4.459c-.697-1.726-.715-3.382-.123-4.85.586-1.454 1.76-2.671 3.454-3.533L34.981.645c.16-.081.309-.15.447-.206 1.642-.67 3.42-.536 4.973.15 1.517.67 2.83 1.877 3.586 3.377.089.176.166.344.23.502l2.046 5.068-2.488 1.013-2.047-5.069a4.315 4.315 0 00-.134-.3c-.472-.94-1.302-1.698-2.264-2.123-.926-.409-1.964-.498-2.895-.118a3.55 3.55 0 00-.247.111l-5.64 2.868c-1.095.557-1.833 1.294-2.175 2.142-.328.812-.3 1.775.124 2.823l1.8 4.46-2.488 1.012z" fill="#00497C"/><path d="M28.293 12.503l10.051-3.87.637 1.68-10.052 3.87-.636-1.68z" fill="#00497C"/><path d="M47.868 13.911l-19.254 7.07c-4.872 1.788-6.16-2.59.44-5.133l8.557-3.295 7.408-2.852c6.186-2.382 13.732.214 2.85 4.21h-.001z" fill="#EABD00"/><path d="M45.496 10.956a1.336 1.336 0 01-1.727-.775 1.346 1.346 0 01.772-1.735c0-.001.401-.153.518-.193 2.832-.967 5.888-1.005 7.611-.402.791.276 1.4.711 1.744 1.292.443.748.446 1.578-.114 2.454-.677 1.06-2.504 2.305-5.976 3.58L29.07 22.245c-1.996.733-3.619.59-4.621-.049a2.659 2.659 0 01-1.154-1.53l-.002.001c-.17-.59-.14-1.24.108-1.906.523-1.399 2.157-3.012 5.174-4.174a1.34 1.34 0 011.732.78 1.35 1.35 0 01-.777 1.74c-2.21.852-3.331 1.828-3.62 2.603-.04.106-.055.176-.046.209v.005c.005.016.003-.019.022-.007.361.23 1.132.214 2.27-.204l19.254-7.07c2.464-.904 3.833-1.655 4.415-2.238l-.037-.013c-1.248-.437-3.59-.366-5.868.413-.198.067-.424.15-.424.15z" fill="#00497C"/><path d="M29.733 17.03a.894.894 0 01-1.155-.52.9.9 0 01.518-1.16L44.86 9.279a.894.894 0 011.155.52.9.9 0 01-.518 1.16l-15.766 6.072v-.001z" fill="#00497C"/><path d="M63.184 25.677c-2.908-1.594-6.518-3.111-9.425-4.704-6.54 2.628-5.385 8.653-1.01 8.653 2.898-1.844 6.981-3.34 10.434-3.949z" fill="#ED811F"/><path d="M55.525 21.525c-1.314-.712-.72-.39-1.88-1.025-1.2 4.602-5.12 2.972-5.487 4.708-.431 2.035 2.446 4.172 4.872 4.243-2.888-3.731 1.131-2.844 2.495-7.926z" fill="#B86823"/><path d="M51.99 28.671c1.549-.985 3.42-1.92 5.355-2.684a34.293 34.293 0 012.17-.773l-1.755-.95c-1.49-.805-2.977-1.608-4.755-2.583l1.28-2.363c1.118.612 2.933 1.593 4.745 2.573 1.506.815 3.016 1.631 4.793 2.605l3.364 1.844-3.774.666c-1.61.285-3.38.816-5.092 1.492-1.787.704-3.501 1.56-4.903 2.452l-1.428-2.28z" fill="#00497C"/><path d="M54.354 20.191c-.857 3.284-2.817 4.05-4.292 4.626-.55.214-.989.386-1.03.576-.018.09-.027.187-.027.288 0 .594.346 1.228.88 1.766a4.452 4.452 0 002.17 1.204c.227.048.46.074.694.074v1.8c-.353 0-.71-.041-1.065-.117-1.153-.246-2.254-.88-3.065-1.696-.854-.86-1.406-1.94-1.406-3.032 0-.216.022-.437.07-.66.242-1.139 1.081-1.467 2.135-1.879 1.11-.433 2.583-1.008 3.208-3.402l1.728.45v.002z" fill="#00497C"/></g><defs><clipPath id="clip0"><path fill="#fff" d="M0 0h284v70H0z"/></clipPath></defs></svg>